<?xml version="1.0" encoding="UTF-8" standalone="no"?>
<!-- Created with Inkscape (http://www.inkscape.org/) -->

<svg
   width="32"
   height="32"
   viewBox="0 0 8.4666666 8.4666668"
   version="1.1"
   id="svg1"
   inkscape:version="1.4.2 (f4327f4, 2025-05-13)"
   sodipodi:docname="favicon.svg"
   xmlns:inkscape="http://www.inkscape.org/namespaces/inkscape"
   xmlns:sodipodi="http://sodipodi.sourceforge.net/DTD/sodipodi-0.dtd"
   xmlns="http://www.w3.org/2000/svg"
   xmlns:svg="http://www.w3.org/2000/svg">
  <sodipodi:namedview
     id="namedview1"
     pagecolor="#ffffff"
     bordercolor="#000000"
     borderopacity="0.25"
     inkscape:showpageshadow="2"
     inkscape:pageopacity="0.0"
     inkscape:pagecheckerboard="0"
     inkscape:deskcolor="#d1d1d1"
     inkscape:document-units="mm"
     inkscape:zoom="15.581903"
     inkscape:cx="14.504005"
     inkscape:cy="18.643422"
     inkscape:window-width="1920"
     inkscape:window-height="991"
     inkscape:window-x="-9"
     inkscape:window-y="-9"
     inkscape:window-maximized="1"
     inkscape:current-layer="layer1" />
  <defs
     id="defs1" />
  <g
     inkscape:label="Capa 1"
     inkscape:groupmode="layer"
     id="layer1"
     transform="translate(-167.02802,-175.23248)">
    <g
       id="g23"
       transform="matrix(0.10018086,-0.01919145,0.01919145,0.10018086,155.92159,164.74778)"
       inkscape:export-filename="favicon-16x16.png"
       inkscape:export-xdpi="48.646626"
       inkscape:export-ydpi="48.646626">
      <g
         id="g19"
         transform="rotate(-130.88535,92.8463,140.81323)"
         inkscape:transform-center-x="7.7281444"
         inkscape:transform-center-y="3.3250978">
        <path
           style="fill:#d72d23;fill-opacity:1;stroke:#d72d23;stroke-width:1.7;stroke-linecap:round;stroke-linejoin:round;stroke-opacity:1"
           d="m 52.770481,146.35882 5.903746,-1.56399 25.944988,-25.90959 z"
           id="path15"
           sodipodi:nodetypes="cccc"
           inkscape:transform-center-x="-15.865543"
           inkscape:transform-center-y="-13.75622"
           transform="rotate(120.25344,52.517842,146.3582)" />
        <path
           style="fill:#196919;fill-opacity:1;stroke:#165b16;stroke-width:1.7;stroke-linecap:round;stroke-linejoin:round;stroke-opacity:1"
           d="m 52.517813,146.13229 2.451825,-5.59364 29.585671,-21.65959 z"
           id="path14"
           sodipodi:nodetypes="cccc"
           inkscape:transform-center-x="-16.028917"
           inkscape:transform-center-y="-13.565505"
           transform="rotate(120.25344,52.517842,146.3582)" />
        <path
           style="fill:#d72d23;fill-opacity:1;stroke:#d72d23;stroke-width:1.7;stroke-linecap:round;stroke-linejoin:round;stroke-opacity:1"
           d="m 52.770481,146.35882 5.903746,-1.56399 25.944988,-25.90959 z"
           id="path17"
           sodipodi:nodetypes="cccc"
           inkscape:transform-center-x="-15.865543"
           inkscape:transform-center-y="-13.75622"
           transform="rotate(-119.99689,52.426124,146.40004)" />
        <path
           style="fill:#196919;fill-opacity:1;stroke:#165b16;stroke-width:1.7;stroke-linecap:round;stroke-linejoin:round;stroke-opacity:1"
           d="m 52.517813,146.13229 2.451825,-5.59364 29.585671,-21.65959 z"
           id="path16"
           sodipodi:nodetypes="cccc"
           inkscape:transform-center-x="-16.028917"
           inkscape:transform-center-y="-13.565505"
           transform="rotate(-119.99689,52.426124,146.40004)" />
        <path
           style="fill:#d72d23;fill-opacity:1;stroke:#d72d23;stroke-width:1.7;stroke-linecap:round;stroke-linejoin:round;stroke-opacity:1"
           d="m 52.56215,145.89248 2.493769,-5.57507 29.747519,-21.43676 z"
           id="path18"
           sodipodi:nodetypes="cccc"
           inkscape:transform-center-x="-16.132984"
           inkscape:transform-center-y="-13.467515" />
        <path
           style="fill:#0f400f;fill-opacity:1;stroke:#165b16;stroke-width:1.69867;stroke-linecap:round;stroke-linejoin:round;stroke-dasharray:none;stroke-opacity:1"
           d="m 53.073479,146.21067 5.903746,-1.56399 25.944988,-25.90959 z"
           id="path19"
           sodipodi:nodetypes="cccc"
           inkscape:transform-center-x="-15.865543"
           inkscape:transform-center-y="-13.75622" />
      </g>
      <g
         id="g22"
         transform="translate(-2.7127857,11.599497)">
        <g
           id="g21">
          <path
             style="baseline-shift:baseline;display:inline;overflow:visible;opacity:1;vector-effect:none;fill:#36e336;stroke-linecap:round;stroke-linejoin:round;enable-background:accumulate;stop-color:#000000;stop-opacity:1"
             d="m 167.33398,135.85352 a 0.85000002,0.85000002 0 0 0 -1.17187,0.27148 l -8.88867,14.22461 -3.20117,-2.13477 a 0.85008502,0.85008502 0 0 0 -1.16993,0.22266 l -11.14257,15.99219 -15.21875,-9.31055 a 0.85008502,0.85008502 0 0 0 -1.23829,0.42578 l -10.76953,28.60352 -5.84179,-10.38477 a 0.85008502,0.85008502 0 0 0 -1.32032,-0.20703 l -18.146481,16.83789 a 0.85000002,0.85000002 0 0 0 -0.04492,1.20117 0.85000002,0.85000002 0 0 0 1.201172,0.0449 l 17.357419,-16.10546 6.20703,11.03515 a 0.85008502,0.85008502 0 0 0 1.53516,-0.11719 l 11.05078,-29.34765 15.02539,9.19336 a 0.85008502,0.85008502 0 0 0 1.14063,-0.24024 l 11.12304,-15.96679 3.23633,2.1582 a 0.85008502,0.85008502 0 0 0 1.19336,-0.25781 l 9.35352,-14.9668 a 0.85000002,0.85000002 0 0 0 -0.26954,-1.17187 z"
             id="path20" />
          <path
             style="baseline-shift:baseline;display:inline;overflow:visible;opacity:1;vector-effect:none;fill:#d72d23;fill-opacity:1;stroke-linecap:round;stroke-linejoin:round;enable-background:accumulate;stop-color:#000000;stop-opacity:1"
             d="m 107.78711,172.34766 c -1.16974,0 -2.13672,0.96697 -2.13672,2.13671 0,1.16975 0.96698,2.13477 2.13672,2.13477 1.16974,0 2.13477,-0.96502 2.13477,-2.13477 0,-1.16974 -0.96503,-2.13671 -2.13477,-2.13671 z m 0,1.69921 c 0.25099,0 0.43555,0.18651 0.43555,0.4375 0,0.251 -0.18456,0.43555 -0.43555,0.43555 -0.25099,0 -0.4375,-0.18455 -0.4375,-0.43555 0,-0.25099 0.18651,-0.4375 0.4375,-0.4375 z"
             id="path21" />
          <path
             style="baseline-shift:baseline;display:inline;overflow:visible;opacity:1;vector-effect:none;fill:#d72d23;fill-opacity:1;stroke-linecap:round;stroke-linejoin:round;enable-background:accumulate;stop-color:#000000;stop-opacity:1"
             d="m 114.58398,183.35547 c -1.16974,0 -2.13671,0.96698 -2.13671,2.13672 0,1.16974 0.96697,2.13672 2.13671,2.13672 1.16975,0 2.13672,-0.96698 2.13672,-2.13672 0,-1.16974 -0.96697,-2.13672 -2.13672,-2.13672 z m 0,1.70117 c 0.251,0 0.43555,0.18455 0.43555,0.43555 0,0.25099 -0.18455,0.4375 -0.43555,0.4375 -0.25099,0 -0.43554,-0.18651 -0.43554,-0.4375 0,-0.251 0.18455,-0.43555 0.43554,-0.43555 z"
             id="path21-1" />
          <path
             style="baseline-shift:baseline;display:inline;overflow:visible;opacity:1;vector-effect:none;fill:#d72d23;fill-opacity:1;stroke-linecap:round;stroke-linejoin:round;enable-background:accumulate;stop-color:#000000;stop-opacity:1"
             d="m 126.22656,153.45898 c -1.16974,0 -2.13672,0.96503 -2.13672,2.13477 0,1.16974 0.96698,2.13672 2.13672,2.13672 1.16974,0 2.13477,-0.96698 2.13477,-2.13672 0,-1.16974 -0.96503,-2.13477 -2.13477,-2.13477 z m 0,1.69922 c 0.251,0 0.43555,0.18456 0.43555,0.43555 0,0.25099 -0.18455,0.4375 -0.43555,0.4375 -0.25099,0 -0.4375,-0.18651 -0.4375,-0.4375 0,-0.25099 0.18651,-0.43555 0.4375,-0.43555 z"
             id="path21-14" />
          <path
             style="baseline-shift:baseline;display:inline;overflow:visible;opacity:1;vector-effect:none;fill:#d72d23;fill-opacity:1;stroke-linecap:round;stroke-linejoin:round;enable-background:accumulate;stop-color:#000000;stop-opacity:1"
             d="m 141.83594,163.51172 c -1.16974,0 -2.13672,0.96698 -2.13672,2.13672 0,1.16974 0.96698,2.13672 2.13672,2.13672 1.16974,0 2.13672,-0.96698 2.13672,-2.13672 0,-1.16974 -0.96698,-2.13672 -2.13672,-2.13672 z m 0,1.70117 c 0.25099,0 0.4375,0.18455 0.4375,0.43555 0,0.25099 -0.18651,0.4375 -0.4375,0.4375 -0.251,0 -0.43555,-0.18651 -0.43555,-0.4375 0,-0.251 0.18455,-0.43555 0.43555,-0.43555 z"
             id="path21-16" />
          <path
             style="baseline-shift:baseline;display:inline;overflow:visible;opacity:1;vector-effect:none;fill:#d72d23;fill-opacity:1;stroke-linecap:round;stroke-linejoin:round;enable-background:accumulate;stop-color:#000000;stop-opacity:1"
             d="m 153.47852,146.84375 c -1.16975,0 -2.13672,0.96698 -2.13672,2.13672 0,1.16974 0.96697,2.13672 2.13672,2.13672 1.16974,0 2.13476,-0.96698 2.13476,-2.13672 0,-1.16974 -0.96502,-2.13672 -2.13476,-2.13672 z m 0,1.69922 c 0.25099,0 0.43554,0.18651 0.43554,0.4375 0,0.25099 -0.18455,0.43555 -0.43554,0.43555 -0.251,0 -0.4375,-0.18456 -0.4375,-0.43555 0,-0.25099 0.1865,-0.4375 0.4375,-0.4375 z"
             id="path21-18" />
          <path
             style="baseline-shift:baseline;display:inline;overflow:visible;opacity:1;vector-effect:none;fill:#d72d23;fill-opacity:1;stroke-linecap:round;stroke-linejoin:round;enable-background:accumulate;stop-color:#000000;stop-opacity:1"
             d="m 157.44727,149.49023 c -1.16975,0 -2.13672,0.96503 -2.13672,2.13477 0,1.16974 0.96697,2.13672 2.13672,2.13672 1.16974,0 2.13476,-0.96698 2.13476,-2.13672 0,-1.16974 -0.96502,-2.13477 -2.13476,-2.13477 z m 0,1.69922 c 0.25099,0 0.43554,0.18456 0.43554,0.43555 0,0.25099 -0.18455,0.4375 -0.43554,0.4375 -0.251,0 -0.4375,-0.18651 -0.4375,-0.4375 0,-0.25099 0.1865,-0.43555 0.4375,-0.43555 z"
             id="path21-5" />
          <path
             style="baseline-shift:baseline;display:inline;overflow:visible;opacity:1;vector-effect:none;fill:#d72d23;fill-opacity:1;stroke-linecap:round;stroke-linejoin:round;enable-background:accumulate;stop-color:#000000;stop-opacity:1"
             d="m 89.712891,189.44141 c -1.169742,0 -2.136719,0.96697 -2.136719,2.13671 0,1.16975 0.966977,2.13672 2.136719,2.13672 1.169741,0 2.136718,-0.96697 2.136718,-2.13672 0,-1.16974 -0.966977,-2.13671 -2.136718,-2.13671 z m 0,1.70117 c 0.250993,0 0.4375,0.18455 0.4375,0.43554 0,0.251 -0.186507,0.43555 -0.4375,0.43555 -0.250994,0 -0.435547,-0.18455 -0.435547,-0.43555 0,-0.25099 0.184553,-0.43554 0.435547,-0.43554 z"
             id="path21-38" />
        </g>
        <path
           style="baseline-shift:baseline;display:inline;overflow:visible;opacity:1;vector-effect:none;fill:#d72d23;fill-opacity:1;stroke-linecap:round;stroke-linejoin:round;enable-background:accumulate;stop-color:#000000;stop-opacity:1"
           d="m 166.9707,134.14453 c -1.16974,0 -2.13476,0.96503 -2.13476,2.13477 0,1.16974 0.96502,2.13672 2.13476,2.13672 1.16974,0 2.13672,-0.96698 2.13672,-2.13672 0,-1.16974 -0.96698,-2.13477 -2.13672,-2.13477 z m 0,1.69922 c 0.251,0 0.4375,0.18455 0.4375,0.43555 0,0.25099 -0.1865,0.4375 -0.4375,0.4375 -0.25099,0 -0.43554,-0.18651 -0.43554,-0.4375 0,-0.251 0.18455,-0.43555 0.43554,-0.43555 z"
           id="path21-3" />
      </g>
      <g
         id="g14"
         transform="rotate(-120.25344,94.096633,136.6577)">
        <path
           style="fill:#22d6a4;fill-opacity:1;stroke:#22d6a4;stroke-width:1.7;stroke-linecap:round;stroke-linejoin:round;stroke-opacity:1"
           d="m 52.517813,146.13229 2.451825,-5.59364 29.585671,-21.65959 z"
           id="path2"
           sodipodi:nodetypes="cccc"
           inkscape:transform-center-x="-16.028917"
           inkscape:transform-center-y="-13.565505"
           transform="rotate(120.25344,52.517842,146.3582)" />
        <path
           style="fill:#36e336;fill-opacity:1;stroke:#36e336;stroke-width:1.69867;stroke-linecap:round;stroke-linejoin:round;stroke-dasharray:none;stroke-opacity:1"
           d="m 52.770481,146.35882 5.903746,-1.56399 25.944988,-25.90959 z"
           id="path2-5"
           sodipodi:nodetypes="cccc"
           inkscape:transform-center-x="-15.865543"
           inkscape:transform-center-y="-13.75622"
           transform="rotate(120.25344,52.517842,146.3582)" />
        <path
           style="fill:#22d6a4;fill-opacity:1;stroke:#22d6a4;stroke-width:1.7;stroke-linecap:round;stroke-linejoin:round;stroke-opacity:1"
           d="m 52.770481,146.35882 5.903746,-1.56399 25.944988,-25.90959 z"
           id="path5"
           sodipodi:nodetypes="cccc"
           inkscape:transform-center-x="-15.865543"
           inkscape:transform-center-y="-13.75622"
           transform="rotate(-119.99689,52.426124,146.40004)" />
        <path
           style="fill:#36e336;fill-opacity:1;stroke:#36e336;stroke-width:1.69867;stroke-linecap:round;stroke-linejoin:round;stroke-dasharray:none;stroke-opacity:1"
           d="m 52.517813,146.13229 2.451825,-5.59364 29.585671,-21.65959 z"
           id="path4"
           sodipodi:nodetypes="cccc"
           inkscape:transform-center-x="-16.028917"
           inkscape:transform-center-y="-13.565505"
           transform="rotate(-119.99689,52.426124,146.40004)" />
        <path
           style="fill:#22d6a4;fill-opacity:1;stroke:#22d6a4;stroke-width:1.7;stroke-linecap:round;stroke-linejoin:round;stroke-opacity:1"
           d="m 53.073479,146.21067 5.903746,-1.56399 25.944988,-25.90959 z"
           id="path7"
           sodipodi:nodetypes="cccc"
           inkscape:transform-center-x="-15.865543"
           inkscape:transform-center-y="-13.75622" />
        <path
           style="fill:#36e336;fill-opacity:1;stroke:#36e336;stroke-width:1.69867;stroke-linecap:round;stroke-linejoin:round;stroke-dasharray:none;stroke-opacity:1"
           d="m 52.56215,145.89248 2.493769,-5.57507 29.747519,-21.43676 z"
           id="path6"
           sodipodi:nodetypes="cccc"
           inkscape:transform-center-x="-16.132984"
           inkscape:transform-center-y="-13.467515" />
      </g>
    </g>
  </g>
</svg>
